<?xml version="1.0" encoding="UTF-8"?>
<svg width="20px" height="14px" viewBox="0 0 20 14" version="1.1" xmlns="http://www.w3.org/2000/svg" xmlns:xlink="http://www.w3.org/1999/xlink">
    <!-- Generator: Sketch 52.5 (67469) - http://www.bohemiancoding.com/sketch -->
    <title>left-arrow (2)</title>
    <desc>Created with Sketch.</desc>
    <g id="Page-1" stroke="none" stroke-width="1" fill="none" fill-rule="evenodd">
        <g id="Dashboard-Login" transform="translate(-131.000000, -94.000000)" fill="#242E42">
            <g id="left-arrow-(2)" transform="translate(131.000000, 94.000000)">
                <path d="M6.52410322,0.210559595 C6.80605498,-0.0701865318 7.24993848,-0.0701865318 7.53189024,0.210559595 C7.80431659,0.481821056 7.80431659,0.933291179 7.53189024,1.20392033 L2.42183221,6.29212773 L19.2843252,6.29212773 C19.6774066,6.29212773 20,6.60322479 20,6.99462536 C20,7.38602592 19.6774066,7.70723996 19.2843252,7.70723996 L2.42183221,7.70723996 L7.53189024,12.7859627 C7.80431659,13.0667088 7.80431659,13.5188113 7.53189024,13.7894404 C7.24993848,14.0701865 6.80605498,14.0701865 6.52410322,13.7894404 L0.204319768,7.49668037 C-0.0681065892,7.22541891 -0.0681065892,6.77394878 0.204319768,6.50331963 L6.52410322,0.210559595 Z" id="Path"></path>
            </g>
        </g>
    </g>
</svg>