<svg xmlns="http://www.w3.org/2000/svg" width="20" height="20" viewBox="0 0 20 20">
    <g fill="#FFF" fill-rule="evenodd" opacity=".5">
        <path d="M19.414 14.108h-.586V3.57H1.172v10.537H.586a.585.585 0 1 0 0 1.17h8.828v1.318a1.753 1.753 0 0 0-1.172 1.648 1.759 1.759 0 0 0 3.516 0c0-.762-.492-1.406-1.172-1.648v-1.318h8.828a.585.585 0 1 0 0-1.17zm-8.242-3.512a.585.585 0 1 1 0 1.17H5.898v.586a.585.585 0 0 1-1.171 0v-.586H4.14a.585.585 0 1 1 0-1.17h.586V5.327a.585.585 0 0 1 1.171 0v3.92l1.27-1.903a.586.586 0 0 1 .903-.089l.666.666 1.947-2.918a.585.585 0 1 1 .975.65L9.316 9.163a.586.586 0 0 1-.902.09l-.666-.667-1.34 2.009h4.764zm4.687 1.17h-2.343a.585.585 0 1 1 0-1.17h2.343a.585.585 0 1 1 0 1.17zm0-2.341h-2.343a.585.585 0 1 1 0-1.17h2.343a.585.585 0 1 1 0 1.17zm0-2.342h-2.343a.585.585 0 1 1 0-1.17h2.343a.585.585 0 1 1 0 1.17zM.586 1.23h.586V2.5h17.656V1.23h.586c.324 0 .586-.276.586-.615 0-.34-.262-.615-.586-.615H.586C.262 0 0 .275 0 .615c0 .34.262.615.586.615z"/>
    </g>
</svg>
