<svg xmlns="http://www.w3.org/2000/svg" width="17" height="17" viewBox="0 0 17 17">
    <path fill="#528BC6" fill-rule="nonzero" d="M14.875 0H2.125A2.127 2.127 0 0 0 0 2.125v12.75C0 16.047.953 17 2.125 17h12.75A2.127 2.127 0 0 0 17 14.875V2.125A2.127 2.127 0 0 0 14.875 0zM2.125 1.417h12.75c.39 0 .708.317.708.708v5.02l-2.332-2.333a.708.708 0 0 0-1.002 0L7.26 9.8 5.46 8a.708.708 0 0 0-1.002 0l-3.041 3.04V2.125c0-.39.317-.708.708-.708zm12.75 14.166H2.125a.709.709 0 0 1-.708-.708v-1.832l3.541-3.541 4.104 4.103a.704.704 0 0 0 1.001 0 .708.708 0 0 0 0-1.002l-1.801-1.8 4.488-4.489 2.833 2.834v5.727c0 .39-.317.708-.708.708z"/>
</svg>
