<svg xmlns="http://www.w3.org/2000/svg" width="22" height="22" viewBox="0 0 22 22">
    <path fill="#CACDDB" fill-rule="nonzero" d="M18.782 3.218c-4.29-4.29-11.273-4.29-15.564 0-4.29 4.291-4.29 11.273 0 15.564 4.29 4.29 11.273 4.29 15.564 0 4.29-4.291 4.29-11.273 0-15.564zM15.34 15.34a.846.846 0 0 1-1.197 0L11 12.197l-3.292 3.292a.846.846 0 1 1-1.197-1.197L9.803 11 6.66 7.857A.846.846 0 1 1 7.857 6.66L11 9.803l2.993-2.993a.846.846 0 1 1 1.197 1.197L12.197 11l3.143 3.143c.33.33.33.866 0 1.197z"/>
</svg>
