<?xml version="1.0" encoding="UTF-8"?>
<svg width="18px" height="18px" viewBox="0 0 18 18" version="1.1" xmlns="http://www.w3.org/2000/svg" xmlns:xlink="http://www.w3.org/1999/xlink">
    <!-- Generator: Sketch 59.1 (86144) - https://sketch.com -->
    <title>icon</title>
    <desc>Created with Sketch.</desc>
    <g id="icon" stroke="none" stroke-width="1" fill="#353F84" fill-rule="evenodd">
        <g id="noun_Info_1736322" transform="translate(1.000000, 1.000000)" fill="#353F84" fill-rule="nonzero">
            <g id="Group">
                <path d="M8,0 C3.568,0 0,3.568 0,8 C0,12.432 3.568,16 8,16 C12.432,16 16,12.432 16,8 C16,3.568 12.432,0 8,0 Z M8,14 C4.672,14 2,11.328 2,8 C2,4.672 4.672,2 8,2 C11.328,2 14,4.672 14,8 C14,11.328 11.328,14 8,14 Z" id="Shape"></path>
                <path d="M8,6.032 C8.56,6.032 8.992,5.6 8.992,5.04 C8.992,4.48 8.56,4.048 8,4.048 C7.44,4.048 7.008,4.48 7.008,5.04 C7.008,5.6 7.44,6.032 8,6.032 Z" id="Path"></path>
                <path d="M9.328,10 C9.136,10 8.992,9.872 8.992,9.696 L8.992,7.04 C8.992,6.848 8.832,6.672 8.656,6.672 L6.672,6.672 C6.48,6.672 6.336,6.864 6.336,7.04 L6.336,7.712 C6.336,7.92 6.496,8.016 6.672,8.016 C6.864,8.016 7.008,8.208 7.008,8.384 L7.008,9.712 C7.008,9.92 6.848,10.016 6.672,10.016 C6.48,10.016 6.336,10.208 6.336,10.384 L6.336,11.04 C6.336,11.248 6.496,11.344 6.672,11.344 L9.344,11.344 C9.536,11.344 9.68,11.216 9.68,11.04 L9.68,10.368 C9.664,10.16 9.504,10 9.328,10 Z" id="Path"></path>
            </g>
        </g>
    </g>
</svg>