<svg xmlns="http://www.w3.org/2000/svg" width="14" height="14" viewBox="0 0 14 14">
    <g fill="#000" fill-rule="evenodd">
        <path d="M12.658 8.636a.351.351 0 0 0-.341.36v3.201c0 .597-.46 1.081-1.025 1.082H1.708c-.566 0-1.024-.485-1.025-1.082V2.803c0-.597.46-1.081 1.025-1.082H4.74a.351.351 0 0 0 .341-.36A.351.351 0 0 0 4.741 1H1.708C.765 1.001 0 1.808 0 2.803v9.394C.001 13.192.765 14 1.708 14h9.584c.943-.001 1.707-.808 1.708-1.803v-3.2c0-.2-.153-.361-.342-.361z"/>
        <path fill-rule="nonzero" d="M13.151.45c-.599-.6-1.57-.6-2.17 0L4.9 6.53a.34.34 0 0 0-.088.15l-.8 2.888a.34.34 0 0 0 .42.42l2.887-.8a.34.34 0 0 0 .15-.088l6.082-6.081c.599-.6.599-1.57 0-2.17l-.4-.4zM5.643 6.751l4.977-4.977 1.606 1.605-4.978 4.978-1.605-1.606zm-.321.644l1.282 1.282-1.774.492.492-1.774zm7.747-4.86l-.361.362-1.606-1.605.362-.362a.852.852 0 0 1 1.205 0l.4.4a.853.853 0 0 1 0 1.206z"/>
    </g>
</svg>
