<svg xmlns="http://www.w3.org/2000/svg" width="15" height="15" viewBox="0 0 15 15">
    <path fill="#353F84" fill-rule="nonzero" d="M7.5 0a7.5 7.5 0 1 0 0 15 7.5 7.5 0 0 0 0-15zm2.881 11.053c-.08 0-.158-.005-.236-.013-.07.008-.142.013-.215.013H8.105l1.963-2.068a.45.45 0 0 0 .09-.462.39.39 0 0 0-.36-.264H8.83V6.101a.462.462 0 0 0-.451-.47H7.01c-.25 0-.451.21-.451.47V8.26H5.516h-.002c-.215 0-.389.19-.389.423 0 .133.057.251.145.329l1.939 2.042H4.292c-1.063 0-1.924-.9-1.924-2.008 0-.923.598-1.7 1.411-1.934.09-.786.73-1.396 1.507-1.396.235 0 .457.058.655.157.387-1.122 1.415-1.925 2.623-1.925 1.449 0 2.639 1.155 2.773 2.63.765.375 1.295 1.186 1.295 2.127 0 1.297-1.008 2.349-2.25 2.349z"/>
</svg>
