<svg xmlns="http://www.w3.org/2000/svg" width="40" height="43" viewBox="0 0 40 43">
    <g fill="none" fill-rule="evenodd">
        <path fill="#6CC7F4" d="M21.811 7.234L20.701 0H4.402A4.379 4.379 0 0 0 0 4.376v30.287C0 37.075 1.949 39 4.403 39h15.46L31 22.427V10.61l-9.189-3.375z"/>
        <path fill="#00EFD1" d="M20.692 0l10.145 10.608-6.063.622c-1.885.166-3.55-1.32-3.723-3.325L20.692 0z"/>
        <g fill="#2BA9F4">
            <path d="M16.988 20.184H4.042c-.546 0-.993.556-.993 1.236 0 .68.447 1.235.993 1.235h12.946c.546 0 .994-.556.994-1.235 0-.68-.437-1.236-.994-1.236zM4.087 16.479h10.517c.57 0 1.038-.556 1.038-1.235 0-.68-.467-1.235-1.038-1.235H4.087c-.57 0-1.038.555-1.038 1.235s.467 1.235 1.038 1.235zM13.366 26.484H4.009c-.528 0-.96.556-.96 1.235 0 .68.432 1.235.96 1.235h9.357c.528 0 .96-.556.96-1.235 0-.68-.432-1.235-.96-1.235z"/>
        </g>
        <path fill="#FD8F6E" d="M30.106 20.117C35.698 20.901 40 25.698 40 31.504 40 37.852 34.85 43 28.5 43a11.485 11.485 0 0 1-10.111-6.023A11.475 11.475 0 0 1 17 31.495C17 25.148 22.15 20 28.5 20c.541.01 1.073.045 1.606.117z"/>
        <path fill="#FFF" d="M29.424 27.228a.545.545 0 0 0-.426-.228.545.545 0 0 0-.425.228l-3.417 4.475a.823.823 0 0 0 .03 1.003c.11.128.256.192.396.192.157 0 .32-.078.437-.227l2.414-3.152v7.77c0 .39.262.711.583.711.32 0 .583-.32.583-.712v-7.77l2.396 3.153c.221.284.583.306.822.035a.831.831 0 0 0 .029-1.003l-3.422-4.475z"/>
    </g>
</svg>
